<?xml version="1.0" encoding="utf-8"?>
<!-- Generator: Adobe Illustrator 23.0.5, SVG Export Plug-In . SVG Version: 6.00 Build 0)  -->
<svg version="1.1" id="Layer_1" xmlns="http://www.w3.org/2000/svg" xmlns:xlink="http://www.w3.org/1999/xlink" x="0px" y="0px"
	 viewBox="0 0 24 24" style="enable-background:new 0 0 24 24;" xml:space="preserve">
<style type="text/css">
	.st0{fill:none;stroke:#791C4A;stroke-linejoin:round;}
</style>
<g id="그룹_14231" transform="translate(-296.5 -614.5)">
	<path id="패스_15117" class="st0" d="M306.4,617h-9.3v16.9h9.3c1.1,0,2.1,0.9,2.1,2.1v-16.9C308.5,617.9,307.6,617,306.4,617z"/>
	<path id="패스_15118" class="st0" d="M310.6,617h9.3v16.9h-9.3c-1.1,0-2.1,0.9-2.1,2.1v-16.9C308.5,617.9,309.4,617,310.6,617z"
		/>
	<line id="선_8819" class="st0" x1="299.7" y1="620.9" x2="306" y2="620.9"/>
	<line id="선_8820" class="st0" x1="299.7" y1="623.9" x2="306" y2="623.9"/>
	<line id="선_8821" class="st0" x1="299.7" y1="627" x2="306" y2="627"/>
	<line id="선_8822" class="st0" x1="299.7" y1="630" x2="306" y2="630"/>
	<line id="선_8823" class="st0" x1="317.3" y1="620.9" x2="311" y2="620.9"/>
	<line id="선_8824" class="st0" x1="317.3" y1="623.9" x2="311" y2="623.9"/>
	<line id="선_8825" class="st0" x1="317.3" y1="627" x2="311" y2="627"/>
	<line id="선_8826" class="st0" x1="317.3" y1="630" x2="311" y2="630"/>
</g>
</svg>
