<svg xmlns="http://www.w3.org/2000/svg" width="77.195" height="31.708" viewBox="0 0 77.195 31.708">
  <g id="그룹_14266" data-name="그룹 14266" transform="translate(-577.686 -382.964)">
    <path id="패스_15131" data-name="패스 15131" d="M893.7,382.964v10.9a3.32,3.32,0,1,1-6.64,0v-10.9h-6.806v10.791a10.127,10.127,0,0,0,20.253,0V382.964Z" transform="translate(-272.017)" fill="#fdbb00"/>
    <g id="그룹_14264" data-name="그룹 14264" transform="translate(577.686 387.551)">
      <path id="패스_15132" data-name="패스 15132" d="M587.979,428.4H577.686v21.913h10.293a10.957,10.957,0,0,0,10.957-10.957h0A10.957,10.957,0,0,0,587.979,428.4Zm.213,14.894h-3.7v-7.875h3.7a3.938,3.938,0,1,1,0,7.875Z" transform="translate(-577.686 -428.403)" fill="#608ffb"/>
    </g>
    <g id="그룹_14265" data-name="그룹 14265" transform="translate(594.287 393.423)">
      <path id="패스_15133" data-name="패스 15133" d="M752.747,486.558a10.625,10.625,0,1,0,6.435,19.077c1.415,1.839,4.189,1.84,4.189,1.84V497.183A10.625,10.625,0,0,0,752.747,486.558Zm0,14.775a4.15,4.15,0,1,1,4.15-4.15A4.15,4.15,0,0,1,752.747,501.333Z" transform="translate(-742.122 -486.558)" fill="#acc800"/>
    </g>
    <path id="패스_15134" data-name="패스 15134" d="M1061.051,431.692a9.257,9.257,0,0,0-5.974,2.175,9.3,9.3,0,0,0-15.27,7.122v11.953h6.641V440.989a2.655,2.655,0,0,1,5.309-.075c0,.025,0,.05,0,.075v11.953h6.646V440.989c0-.025,0-.05,0-.075,0,.025,0,.049,0,.075a2.656,2.656,0,1,1,5.312,0v11.953h6.64V440.989A9.3,9.3,0,0,0,1061.051,431.692Z" transform="translate(-415.467 -43.809)" fill="#f1685e"/>
  </g>
</svg>
