<?xml version="1.0" encoding="utf-8"?>
<!-- Generator: Adobe Illustrator 25.1.0, SVG Export Plug-In . SVG Version: 6.00 Build 0)  -->
<svg version="1.1" id="레이어_1" xmlns="http://www.w3.org/2000/svg" xmlns:xlink="http://www.w3.org/1999/xlink" x="0px"
	 y="0px" viewBox="0 0 226 41" style="enable-background:new 0 0 226 41;" xml:space="preserve">
<style type="text/css">
	.st0{enable-background:new    ;}
	.st1{fill:#791C4A;}
	.st2{fill:#7F7F7F;}
</style>
<g id="그룹_14791" transform="translate(0 -1)">
	<g class="st0">
		<path class="st1" d="M2.2,34V8.2h7.9c1.6,0,2.9,0.2,3.8,0.7c0.9,0.5,1.7,1.3,2.3,2.3c0.6,1.1,0.9,2.2,0.9,3.5
			c0,1.2-0.3,2.2-0.8,3.2c-0.5,0.9-1.2,1.7-2.2,2.3c1.2,0.4,2.2,1.2,2.9,2.3c0.7,1.1,1.1,2.4,1.1,4c0,1.6-0.3,2.9-1,4.1
			s-1.5,2-2.6,2.6c-1.1,0.5-2.5,0.8-4.4,0.8H2.2z M5,19.1h4.6c1.2,0,2-0.1,2.6-0.2c0.7-0.2,1.3-0.7,1.7-1.2c0.4-0.6,0.6-1.4,0.6-2.4
			c0-0.9-0.2-1.7-0.5-2.3c-0.4-0.6-0.8-1-1.4-1.3c-0.6-0.2-1.7-0.4-3.2-0.4H5V19.1z M5,31h5.3c1.2,0,2-0.1,2.6-0.3
			c0.8-0.3,1.4-0.8,1.8-1.5c0.4-0.7,0.6-1.6,0.6-2.6c0-1-0.2-1.8-0.6-2.5c-0.4-0.7-0.9-1.2-1.6-1.5c-0.7-0.3-1.7-0.5-3.2-0.5H5V31z"
			/>
		<path class="st1" d="M22,34V8.2h9.4c2,0,3.4,0.2,4.3,0.7c0.9,0.5,1.7,1.3,2.3,2.4s0.9,2.4,0.9,3.9c0,1.9-0.5,3.5-1.5,4.7
			c-1,1.2-2.5,2-4.4,2.3c0.8,0.5,1.4,0.9,1.8,1.4c0.8,1,1.6,2.1,2.2,3.3l3.7,7h-3.5l-2.8-5.4c-1.1-2.1-1.9-3.5-2.5-4.2
			c-0.6-0.7-1.1-1.2-1.6-1.5c-0.5-0.3-1.2-0.4-2.2-0.4h-3.2V34H22z M24.8,19.6h6c1.3,0,2.3-0.2,3-0.5s1.2-0.8,1.6-1.5
			s0.6-1.5,0.6-2.4c0-1.3-0.4-2.3-1.1-3.1s-1.9-1.1-3.4-1.1h-6.7V19.6z"/>
		<path class="st1" d="M43.3,34V8.2h15.3v3H46.1v7.9h11.7v3H46.1V31h13v3H43.3z"/>
		<path class="st1" d="M63.2,34V8.2h14.3v3H66v8h9.9v3H66V34H63.2z"/>
		<path class="st1" d="M80.2,21.4c0-4.4,1-7.8,2.9-10.1s4.3-3.5,7.2-3.5c1.9,0,3.6,0.5,5.1,1.6s2.8,2.6,3.6,4.6s1.3,4.4,1.3,7.2
			c0,3.8-0.9,6.9-2.6,9.3c-1.9,2.6-4.4,4-7.5,4c-3.1,0-5.6-1.4-7.5-4.1C81.1,27.9,80.2,24.9,80.2,21.4z M83.1,21.5
			c0,3.2,0.7,5.6,2.1,7.4c1.4,1.8,3.1,2.6,5.1,2.6c2.1,0,3.8-0.9,5.2-2.7c1.4-1.8,2.1-4.4,2.1-7.8c0-2.2-0.4-4.2-1.1-5.9
			c-0.6-1.3-1.4-2.4-2.5-3.2s-2.3-1.2-3.6-1.2c-2.1,0-3.8,0.9-5.2,2.6C83.8,15.1,83.1,17.8,83.1,21.5z"/>
		<path class="st1" d="M103,25.7l2.6-0.3c0.1,1.4,0.5,2.5,1,3.3s1.2,1.4,2.1,1.9s2,0.7,3.1,0.7c1.7,0,3-0.4,3.9-1.2s1.4-1.9,1.4-3.2
			c0-0.8-0.2-1.4-0.5-2s-0.8-1-1.5-1.4s-2.1-0.9-4.4-1.5c-2-0.6-3.4-1.2-4.3-1.8s-1.5-1.4-2-2.3s-0.7-2-0.7-3.1c0-2.1,0.7-3.8,2-5.1
			s3.2-2,5.4-2c1.6,0,2.9,0.3,4.1,0.9s2.1,1.5,2.7,2.7s1,2.5,1,4.1l-2.7,0.2c-0.1-1.7-0.6-2.9-1.5-3.7s-2.1-1.2-3.6-1.2
			c-1.6,0-2.8,0.4-3.6,1.1s-1.2,1.6-1.2,2.8c0,1,0.3,1.9,0.9,2.4c0.6,0.6,2,1.2,4.1,1.7c2.1,0.6,3.5,1.1,4.4,1.5
			c1.3,0.7,2.3,1.5,2.9,2.6c0.7,1.1,1,2.3,1,3.8c0,1.5-0.3,2.8-1,4c-0.7,1.2-1.6,2.1-2.8,2.8s-2.6,0.9-4.3,0.9
			c-2.6,0-4.7-0.8-6.2-2.4S103.1,28.4,103,25.7z"/>
	</g>
	<g class="st0">
		<path class="st2" d="M133.7,17.8c1-0.1,2.1-0.1,3-0.3l0.1,0.7c-2.4,0.4-5,0.5-7,0.5l-0.1-0.8c0.9,0,1.9,0,3,0v-2h1V17.8z
			 M130,15.4c1.6-0.5,2.7-1.7,2.7-3.1h-2.4v-0.8h2.4v-1.3h1v1.3h2.5v0.8h-2.5c0,1.4,1.2,2.5,2.7,3l-0.5,0.8
			c-1.3-0.4-2.3-1.2-2.7-2.3c-0.5,1.1-1.5,2-2.7,2.4L130,15.4z M138.4,10.1v10.8h-1V10.1H138.4z"/>
		<path class="st2" d="M145.7,16.2c-1.2-0.4-2.1-1.3-2.6-2.4c-0.5,1.2-1.4,2.2-2.7,2.7l-0.5-0.8c1.6-0.6,2.7-2,2.7-3.5v-0.4h-2.4
			v-0.8h5.7v0.8h-2.4v0.4c0,1.4,1.1,2.7,2.6,3.3L145.7,16.2z M141.5,17.2h7.2v3.7h-1v-3h-6.2V17.2z M148.7,10.1v6.4h-1v-2.8h-2.1
			v-0.8h2.1v-2.8H148.7z"/>
		<path class="st2" d="M155.5,11.3c0,3.1-1.4,5.8-4.9,7.6l-0.5-0.8c2.7-1.4,4.2-3.4,4.4-6h-3.9v-0.8H155.5z M160,15.3h-1.7v5.6h-1
			V10.1h1v4.4h1.7V15.3z"/>
		<path class="st2" d="M170,15.5v0.8h-9.7v-0.8h2.4v-1.5c-0.9-0.3-1.3-0.9-1.3-1.6c0-1.3,1.5-2,3.8-2c2.3,0,3.8,0.7,3.8,2
			c0,0.7-0.5,1.3-1.3,1.6v1.5H170z M168.8,19c0,1.2-1.4,1.9-3.7,1.9c-2.3,0-3.7-0.7-3.7-1.9s1.4-1.9,3.7-1.9
			C167.4,17,168.8,17.7,168.8,19z M165.1,13.6c1.7,0,2.8-0.5,2.8-1.2c0-0.8-1.1-1.2-2.8-1.2c-1.7,0-2.8,0.5-2.8,1.2
			C162.3,13.1,163.4,13.6,165.1,13.6z M167.8,19c0-0.7-1-1.2-2.7-1.2c-1.7,0-2.7,0.4-2.7,1.2s1,1.2,2.7,1.2
			C166.8,20.1,167.8,19.7,167.8,19z M163.6,15.5h3v-1.3c-0.4,0.1-0.9,0.1-1.5,0.1c-0.5,0-1,0-1.5-0.1V15.5z"/>
		<path class="st2" d="M176.1,11.3c0,3.1-1.4,5.8-5,7.6l-0.5-0.8c2.9-1.4,4.3-3.4,4.5-6h-4v-0.8H176.1z M179.3,10.1v10.8h-1V10.1
			H179.3z"/>
		<path class="st2" d="M189.5,10.1V16h-1v-2.4H186v2h-4.8v-4.9h1v1.6h2.9v-1.6h1v2.1h2.5v-2.6H189.5z M185,13.1h-2.9v1.7h2.9V13.1z
			 M188.5,16.5h1v4.2h-6.9v-4.2h1v1.3h4.9V16.5z M188.5,18.6h-4.9v1.3h4.9V18.6z"/>
		<path class="st2" d="M198.4,11.3c0,3.1-1.4,5.8-5,7.6l-0.5-0.8c2.9-1.4,4.3-3.4,4.5-6h-4v-0.8H198.4z M201.5,10.1v10.8h-1V10.1
			H201.5z"/>
		<path class="st2" d="M212.6,15.7v0.8h-4.3v2.2h-1v-2.2h-4.5v-0.8H212.6z M203.5,14.1c1.9-0.3,3.6-1.3,3.6-2.6v0h-3.3v-0.8h8v0.8
			h-3.3v0c0,1.3,1.7,2.4,3.6,2.6l-0.4,0.8c-1.8-0.3-3.3-1.1-3.9-2.4c-0.6,1.2-2.2,2.1-3.9,2.4L203.5,14.1z M205.1,19.8h6.5v0.8h-7.4
			v-3h1V19.8z"/>
		<path class="st2" d="M216.8,13c0,2,1.2,3.9,2.8,4.7l-0.6,0.8c-1.2-0.6-2.2-1.9-2.7-3.4c-0.5,1.6-1.5,3-2.7,3.6l-0.6-0.8
			c1.6-0.8,2.8-2.9,2.8-4.8v-1.9h1V13z M221.9,10.1v10.8h-1v-6.3h-2.5v-0.8h2.5v-3.6H221.9z"/>
	</g>
	<g class="st0">
		<path class="st2" d="M139.4,29.6v0.8h-4.3v2.2h-1v-2.2h-4.5v-0.8H139.4z M130.7,26.6c0-1.3,1.5-2.2,3.8-2.2s3.8,0.8,3.8,2.2
			c0,1.3-1.5,2.2-3.8,2.2S130.7,27.9,130.7,26.6z M131.9,33.8h6.5v0.8h-7.4v-3.1h1V33.8z M131.8,26.6c0,0.8,1.1,1.4,2.7,1.4
			c1.7,0,2.7-0.5,2.7-1.4c0-0.9-1.1-1.4-2.7-1.4C132.8,25.2,131.8,25.7,131.8,26.6z"/>
		<path class="st2" d="M144.9,29c-0.5,0.6-1.3,0.9-2.2,0.9c-1.6,0-2.8-1.1-2.8-2.6c0-1.5,1.2-2.5,2.8-2.5c0.9,0,1.7,0.3,2.2,0.9h2.8
			v-1.5h1v6.4h-1V29H144.9z M142.8,29c1.1,0,1.8-0.7,1.8-1.7c0-1-0.8-1.7-1.8-1.7c-1,0-1.8,0.7-1.8,1.7
			C140.9,28.3,141.7,29,142.8,29z M148.7,32.8c0,1.3-1.4,2.1-3.6,2.1c-2.2,0-3.6-0.8-3.6-2.1c0-1.3,1.4-2.1,3.6-2.1
			C147.4,30.8,148.7,31.5,148.7,32.8z M147.8,32.8c0-0.8-1-1.3-2.6-1.3c-1.6,0-2.6,0.5-2.6,1.3c0,0.8,1,1.3,2.6,1.3
			C146.8,34.1,147.8,33.6,147.8,32.8z M145.4,26.5c0.1,0.3,0.1,0.5,0.1,0.8c0,0.3,0,0.6-0.1,0.8h2.3v-1.7H145.4z"/>
		<path class="st2" d="M153.8,27c0,2,1.3,3.9,2.9,4.7l-0.6,0.8c-1.2-0.6-2.3-1.9-2.8-3.4c-0.5,1.6-1.5,3-2.8,3.6l-0.6-0.8
			c1.6-0.8,2.9-2.8,2.9-4.9v-1.9h1V27z M158.8,24.1v10.8h-1V24.1H158.8z"/>
		<path class="st2" d="M170,32.6v0.8h-9.8v-0.8H170z M169.1,30.4c-1.6-0.4-3.3-1.5-4-3.1c-0.7,1.6-2.4,2.7-4,3.1l-0.4-0.8
			c1.9-0.4,3.9-2,3.9-3.8v-0.8h1v0.8c0,1.8,2,3.5,3.9,3.8L169.1,30.4z"/>
		<path class="st2" d="M175.6,29.7c-1.2,0.2-2.2,0.3-4,0.3h-0.7v-5.1h4.1v0.8h-3.1v1.3h2.7v0.8h-2.7v1.5c1.5,0,2.5-0.1,3.6-0.3
			L175.6,29.7z M172.5,31.1h7.1v3.6h-7.1V31.1z M173.4,34h5.1v-2.1h-5.1V34z M176.5,27.6h-1.4v-0.8h1.4v-2.5h0.9v6.2h-0.9V27.6z
			 M179.5,24.1v6.5h-0.9v-6.5H179.5z"/>
	</g>
</g>
</svg>
